<?xml version="1.0" standalone="no"?><!DOCTYPE svg PUBLIC "-//W3C//DTD SVG 1.1//EN" "http://www.w3.org/Graphics/SVG/1.1/DTD/svg11.dtd"><svg t="1557222741177" class="icon" style="" viewBox="0 0 1024 1024" version="1.1" xmlns="http://www.w3.org/2000/svg" p-id="2977" xmlns:xlink="http://www.w3.org/1999/xlink" width="32" height="32"><defs><style type="text/css"></style></defs><path d="M386.12 434.18h41.5v155.63h-41.5z" p-id="2978"></path><path d="M888.65 400.78c22.2-3.65 38.35-22.58 38.35-45.03v-130.1c0-25.19-20.46-45.65-45.65-45.65h-738.7C117.5 180 97 200.46 97 225.65v130.1c0 22.45 16.14 41.38 38.39 45.03 53.91 8.76 93.04 55.53 93.04 111.22 0 55.65-39.13 102.42-93.04 111.22C113.14 626.83 97 645.75 97 668.25v130.1C97 823.5 117.5 844 142.65 844h738.7c25.19 0 45.65-20.5 45.65-45.65v-130.1c0-22.49-16.14-41.42-38.35-45.03-53.95-8.8-93.08-55.57-93.08-111.22 0-55.69 39.13-102.46 93.08-111.22zM754.07 512c0 76.11 53.78 140.1 127.9 152.18 2.03 0.33 3.53 2.03 3.53 4.07v130.1c0 2.28-1.87 4.15-4.15 4.15H427.63V667.63h-41.5V802.5H142.65c-2.28 0-4.15-1.87-4.15-4.15v-130.1c0-2.03 1.49-3.73 3.53-4.07 74.12-12.08 127.9-76.07 127.9-152.18 0-76.11-53.78-140.15-127.9-152.18-2.03-0.33-3.53-2.07-3.53-4.07v-130.1c0-2.28 1.87-4.15 4.15-4.15h243.48v134.88h41.5V221.5h453.72c2.28 0 4.15 1.87 4.15 4.15v130.1c0 1.99-1.49 3.74-3.53 4.07-74.12 12.03-127.9 76.07-127.9 152.18z" p-id="2979"></path></svg>