<?xml version="1.0" standalone="no"?><!DOCTYPE svg PUBLIC "-//W3C//DTD SVG 1.1//EN" "http://www.w3.org/Graphics/SVG/1.1/DTD/svg11.dtd"><svg t="1557222693990" class="icon" style="" viewBox="0 0 1024 1024" version="1.1" xmlns="http://www.w3.org/2000/svg" p-id="2062" xmlns:xlink="http://www.w3.org/1999/xlink" width="32" height="32"><defs><style type="text/css"></style></defs><path d="M511.7 907c-6 0-11.8-2.6-15.7-7.1L76.3 425.2c-6.4-7.3-7-17.9-1.5-25.8l189-273.3c3.9-5.7 10.4-9.1 17.3-9.1h462c6.9 0 13.3 3.4 17.3 9.1l189 273.3c5.5 7.9 4.9 18.6-1.5 25.8L527.4 899.9c-4 4.5-9.7 7.1-15.7 7.1zM118.6 409.7l393.1 444.6 393.7-444.6L732 159H292L118.6 409.7z" p-id="2063"></path><path d="M511.6 668.6c-16.1 0-32-6.1-44.1-18.3L326.2 488c-7.6-8.8-6.7-22 2.1-29.7 8.7-7.5 22-6.7 29.6 2.1l140.3 161.3c7.2 7.1 20.5 7.1 28.7-1.1l138.3-159.2c7.6-8.8 20.9-9.6 29.6-2.1 8.8 7.6 9.7 20.9 2.1 29.7L557.5 649.3c-12.9 12.9-29.5 19.3-45.9 19.3z" p-id="2064"></path></svg>