<?xml version="1.0" standalone="no"?><!DOCTYPE svg PUBLIC "-//W3C//DTD SVG 1.1//EN" "http://www.w3.org/Graphics/SVG/1.1/DTD/svg11.dtd"><svg t="1559014848896" class="icon" style="" viewBox="0 0 1024 1024" version="1.1" xmlns="http://www.w3.org/2000/svg" p-id="5429" xmlns:xlink="http://www.w3.org/1999/xlink" width="32" height="32"><defs><style type="text/css"></style></defs><path d="M315.733333 472.177778H156.444444c-88.177778 0-156.444444-71.111111-156.444444-156.444445V156.444444C0 71.111111 71.111111 0 156.444444 0H312.888889c88.177778 0 156.444444 71.111111 156.444444 156.444444V312.888889c2.844444 88.177778-68.266667 159.288889-153.6 159.288889zM156.444444 85.333333C116.622222 85.333333 85.333333 116.622222 85.333333 156.444444V312.888889c0 39.822222 31.288889 71.111111 71.111111 71.111111H312.888889c39.822222 0 71.111111-31.288889 71.111111-71.111111V156.444444C384 116.622222 352.711111 85.333333 312.888889 85.333333H156.444444zM867.555556 472.177778H711.111111c-88.177778 0-156.444444-71.111111-156.444444-156.444445V156.444444C554.666667 68.266667 625.777778 0 711.111111 0h156.444445c85.333333 0 156.444444 71.111111 156.444444 156.444444V312.888889c0 88.177778-71.111111 159.288889-156.444444 159.288889zM708.266667 85.333333c-39.822222 0-71.111111 31.288889-71.111111 71.111111V312.888889c0 39.822222 31.288889 71.111111 71.111111 71.111111h156.444444c39.822222 0 71.111111-31.288889 71.111111-71.111111V156.444444c2.844444-39.822222-28.444444-71.111111-68.266666-71.111111h-159.288889zM315.733333 1024H156.444444c-85.333333 0-156.444444-71.111111-156.444444-156.444444V711.111111c0-88.177778 71.111111-156.444444 156.444444-156.444444H312.888889c88.177778 0 156.444444 71.111111 156.444444 156.444444v156.444445c2.844444 85.333333-68.266667 156.444444-153.6 156.444444zM156.444444 637.155556c-39.822222 0-71.111111 31.288889-71.111111 71.111111v156.444444C85.333333 907.377778 116.622222 938.666667 156.444444 938.666667H312.888889c39.822222 0 71.111111-31.288889 71.111111-71.111111V711.111111c0-39.822222-31.288889-71.111111-71.111111-71.111111H156.444444zM867.555556 1024H711.111111c-88.177778 0-156.444444-71.111111-156.444444-156.444444V711.111111c0-88.177778 71.111111-156.444444 156.444444-156.444444h156.444445c88.177778 0 156.444444 71.111111 156.444444 156.444444v156.444445c0 85.333333-71.111111 156.444444-156.444444 156.444444z m-159.288889-386.844444c-39.822222 0-71.111111 31.288889-71.111111 71.111111v156.444444c0 39.822222 31.288889 71.111111 71.111111 71.111111h156.444444c39.822222 0 71.111111-31.288889 71.111111-71.111111v-156.444444c0-39.822222-31.288889-71.111111-71.111111-71.111111h-156.444444z" p-id="5430" fill="#9e9e9e"></path></svg>