<?xml version="1.0" standalone="no"?><!DOCTYPE svg PUBLIC "-//W3C//DTD SVG 1.1//EN" "http://www.w3.org/Graphics/SVG/1.1/DTD/svg11.dtd"><svg t="1559015076769" class="icon" style="" viewBox="0 0 1024 1024" version="1.1" xmlns="http://www.w3.org/2000/svg" p-id="5602" xmlns:xlink="http://www.w3.org/1999/xlink" width="32" height="32"><defs><style type="text/css"></style></defs><path d="M985.6 197.12 629.76 197.12c-23.04 0-38.4-17.92-38.4-38.4 0-20.48 17.92-38.4 38.4-38.4l353.28 0c23.04 0 38.4 17.92 38.4 38.4C1024 179.2 1006.08 197.12 985.6 197.12L985.6 197.12M985.6 394.24 629.76 394.24c-23.04 0-38.4-17.92-38.4-38.4 0-20.48 17.92-38.4 38.4-38.4l353.28 0c23.04 0 38.4 17.92 38.4 38.4C1024 376.32 1006.08 394.24 985.6 394.24L985.6 394.24M985.6 709.12 629.76 709.12c-23.04 0-38.4-17.92-38.4-38.4 0-23.04 17.92-38.4 38.4-38.4l353.28 0c23.04 0 38.4 17.92 38.4 38.4C1024 691.2 1006.08 709.12 985.6 709.12L985.6 709.12M985.6 906.24 629.76 906.24c-23.04 0-38.4-17.92-38.4-38.4 0-23.04 17.92-38.4 38.4-38.4l353.28 0c23.04 0 38.4 17.92 38.4 38.4C1024 888.32 1006.08 906.24 985.6 906.24L985.6 906.24M353.28 473.6 117.76 473.6c-64 0-117.76-53.76-117.76-117.76L0 117.76C0 53.76 53.76 0 117.76 0l235.52 0c64 0 117.76 53.76 117.76 117.76l0 235.52C473.6 419.84 419.84 473.6 353.28 473.6L353.28 473.6M117.76 79.36c-20.48 0-38.4 17.92-38.4 38.4l0 235.52c0 20.48 17.92 38.4 38.4 38.4l235.52 0c20.48 0 38.4-17.92 38.4-38.4L391.68 117.76c0-20.48-17.92-38.4-38.4-38.4L117.76 79.36 117.76 79.36M353.28 1024 117.76 1024C53.76 1024 0 970.24 0 906.24l0-235.52c0-64 53.76-117.76 117.76-117.76l235.52 0c64 0 117.76 53.76 117.76 117.76l0 235.52C473.6 970.24 419.84 1024 353.28 1024L353.28 1024M117.76 629.76c-20.48 0-38.4 17.92-38.4 38.4l0 235.52c0 20.48 17.92 38.4 38.4 38.4l235.52 0c20.48 0 38.4-17.92 38.4-38.4l0-235.52c0-20.48-17.92-38.4-38.4-38.4L117.76 629.76 117.76 629.76M117.76 629.76" p-id="5603" fill="#9e9e9e"></path></svg>