<?xml version="1.0" standalone="no"?><!DOCTYPE svg PUBLIC "-//W3C//DTD SVG 1.1//EN" "http://www.w3.org/Graphics/SVG/1.1/DTD/svg11.dtd"><svg t="1559025555941" class="icon" style="" viewBox="0 0 1024 1024" version="1.1" xmlns="http://www.w3.org/2000/svg" p-id="10166" xmlns:xlink="http://www.w3.org/1999/xlink" width="32" height="32"><defs><style type="text/css"></style></defs><path d="M700.7 848.6h301.8c11.9 0 21.6 9.6 21.6 21.6s-9.7 21.6-21.6 21.6H700.7c-11.9 0-21.6-9.6-21.6-21.6s9.7-21.6 21.6-21.6zM700.7 719.3h301.8c11.9 0 21.6 9.6 21.6 21.6s-9.7 21.6-21.6 21.6H700.7c-11.9 0-21.6-9.6-21.6-21.6s9.7-21.6 21.6-21.6zM700.7 590h301.8c11.9 0 21.6 9.6 21.6 21.6s-9.7 21.6-21.6 21.6H700.7c-11.9 0-21.6-9.6-21.6-21.6s9.7-21.6 21.6-21.6z" fill="#ee1c3f" p-id="10167"></path><path d="M884.1 72.6h-841c-10.6 0-20.9 4-28.8 11.1-17.7 15.9-19.1 43.2-3.2 60.9l323.2 359.2v318.1c0 16.4 9.2 31.3 23.8 38.6l172.4 86.2c6 3 12.6 4.6 19.3 4.6 23.8 0 43.1-19.3 43.1-43.1V503.8l323.2-359.3c7.2-7.9 11.1-18.2 11.1-28.8 0-23.8-19.3-43.1-43.1-43.1zM549.8 487.2v421L377.4 822V487.2L43.1 115.8h841L549.8 487.2z" fill="#ee1c3f" p-id="10168"></path></svg>