<?xml version="1.0" standalone="no"?><!DOCTYPE svg PUBLIC "-//W3C//DTD SVG 1.1//EN" "http://www.w3.org/Graphics/SVG/1.1/DTD/svg11.dtd"><svg t="1572489418195" class="icon" viewBox="0 0 1024 1024" version="1.1" xmlns="http://www.w3.org/2000/svg" p-id="2777" width="48" height="48" xmlns:xlink="http://www.w3.org/1999/xlink"><defs><style type="text/css"></style></defs><path d="M742.4 48.188235c-87.341176 0-174.682353 40.658824-230.4 105.411765-55.717647-66.258824-143.058824-105.411765-230.4-105.411765C123.482353 48.188235 0 168.658824 0 325.270588c0 191.247059 174.682353 347.858824 441.223529 579.764706l72.282353 70.776471 72.282353-70.776471C850.823529 673.129412 1024 518.023529 1024 325.270588c0-156.611765-121.976471-277.082353-281.6-277.082353zM575.247059 850.823529l-63.247059 60.235295-63.247059-60.235295C216.847059 652.047059 48.188235 484.894118 48.188235 319.247059c0-135.529412 91.858824-222.870588 230.4-222.870588 76.8 0 183.717647 66.258824 233.411765 123.482353 49.694118-57.223529 141.552941-123.482353 218.352941-123.482353 138.541176 0 246.964706 88.847059 246.964706 222.870588-1.505882 165.647059-168.658824 332.8-402.070588 531.57647z" fill="" p-id="2778"></path><path d="M472.847059 534.588235l-114.447059-109.929411-37.647059 36.141176 152.094118 147.576471 326.77647-314.729412-37.647058-37.647059z" fill="" p-id="2779"></path></svg>