<?xml version="1.0" standalone="no"?><!DOCTYPE svg PUBLIC "-//W3C//DTD SVG 1.1//EN" "http://www.w3.org/Graphics/SVG/1.1/DTD/svg11.dtd"><svg t="1557222825130" class="icon" style="" viewBox="0 0 1025 1024" version="1.1" xmlns="http://www.w3.org/2000/svg" p-id="4273" xmlns:xlink="http://www.w3.org/1999/xlink" width="32.03125" height="32"><defs><style type="text/css"></style></defs><path d="M929.692694 622.688154 762.19604 622.688154c-15.428104 0-27.915085-12.514612-27.915085-27.916109 0-15.429128 12.488005-27.913039 27.915085-27.913039l167.496653 0c15.400474 0 27.914062 12.483911 27.914062 27.913039C957.608802 610.174566 945.094191 622.688154 929.692694 622.688154zM929.692694 455.190478 706.364846 455.190478c-15.427081 0-27.915085-12.483911-27.915085-27.915085 0-15.430151 12.488005-27.914062 27.915085-27.914062l223.327847 0c15.400474 0 27.914062 12.483911 27.914062 27.914062C957.608802 442.706567 945.094191 455.190478 929.692694 455.190478zM929.692694 287.695872 706.364846 287.695872c-15.427081 0-27.915085-12.514612-27.915085-27.915085 0-15.432198 12.488005-27.914062 27.915085-27.914062l223.327847 0c15.400474 0 27.914062 12.481864 27.914062 27.914062C957.608802 275.18126 945.094191 287.695872 929.692694 287.695872zM678.448737 678.521396 678.448737 793.252827c0 92.500061-74.994545 167.4987-167.496653 167.4987L231.794066 960.751527c-92.504154 0-167.4987-74.998639-167.4987-167.4987L64.295366 678.521396c0-73.334663 47.410004-134.975445 113.055175-157.657092-35.767291-48.226641-57.221934-109.998413-57.221934-177.338261 0-154.16438 112.48312-279.160065 251.246003-279.160065 138.736276 0 251.246003 124.997731 251.246003 279.160065 0 67.339848-21.460784 129.11162-57.225004 177.338261C631.014173 543.546973 678.448737 605.185709 678.448737 678.521396zM566.783279 343.527066c0-123.331709-87.481527-223.325801-195.410715-223.325801-107.930212 0-195.412762 99.997162-195.412762 223.325801 0 123.334779 87.481527 223.328871 195.412762 223.328871C479.301752 566.85696 566.783279 466.860822 566.783279 343.527066zM622.617543 692.477915c0-59.347443-45.06345-108.800064-105.425038-121.915385-41.134789 32.685968-91.378464 52.126648-145.819941 52.126648-54.443525 0-104.715853-19.43761-145.851665-52.126648-60.356471 13.112251-105.391268 62.567942-105.391268 121.915385l0 86.818392c0 69.381442 61.367546 125.623002 137.043647 125.623002l228.40062 0c75.675077 0 137.043647-56.24156 137.043647-125.623002L622.617543 692.477915zM762.198087 734.351567l167.496653 0c15.400474 0 27.913039 12.484934 27.913039 27.915085 0 15.403544-12.514612 27.914062-27.913039 27.914062L762.198087 790.180714c-15.428104 0-27.916109-12.513588-27.916109-27.914062C734.280955 746.837524 746.767936 734.351567 762.198087 734.351567z" p-id="4274"></path></svg>