<svg viewBox="0 0 40 40" xmlns="http://www.w3.org/2000/svg"><g fill="#fff"><path d="m27.81 13.7h.6c-1.05-5.7-6.97-10.1-14.11-10.1-7.89 0-14.3 5.34-14.3 11.94a11.38 11.38 0 0 0 5.63 9.46l.13.08-1.38 4.35 5.16-2.63.24.07a17.07 17.07 0 0 0 4.52.61h1a9.39 9.39 0 0 1 -.45-2.85c0-6 5.82-10.9 13-10.9zm-8.54-4.22a1.95 1.95 0 1 1 -2 1.95 2 2 0 0 1 2-1.95zm-9.94 3.89a1.95 1.95 0 1 1 2-1.94 2 2 0 0 1 -2 1.94z"/><path d="m15.86 24.67c0 5.57 5.4 10.09 12.06 10.09a14.37 14.37 0 0 0 3.81-.52l.21-.06 4.36 2.22-1.17-3.65.11-.07a9.6 9.6 0 0 0 4.74-8c0-5.57-5.4-10.09-12.06-10.09s-12.06 4.51-12.06 10.08zm14.56-3.48a1.7 1.7 0 1 1 1.69 1.65 1.66 1.66 0 0 1 -1.69-1.65zm-8.39 0a1.69 1.69 0 1 1 1.69 1.65 1.66 1.66 0 0 1 -1.72-1.65z"/></g></svg>