<?xml version="1.0" encoding="utf-8"?>
<!-- Generator: Adobe Illustrator 23.0.0, SVG Export Plug-In . SVG Version: 6.00 Build 0)  -->
<svg version="1.1" id="物流详情_1_" xmlns="http://www.w3.org/2000/svg" xmlns:xlink="http://www.w3.org/1999/xlink" x="0px"
	 y="0px" viewBox="0 0 38 38" style="enable-background:new 0 0 38 38;" xml:space="preserve">
<style type="text/css">
	.st0{fill:#666666;}
</style>
<g id="矩形_13">
	<path class="st0" d="M31,6c0.55,0,1,0.45,1,1v24c0,0.55-0.45,1-1,1H7c-0.55,0-1-0.45-1-1V7c0-0.55,0.45-1,1-1H31 M31,4H7
		C5.34,4,4,5.34,4,7v24c0,1.66,1.34,3,3,3h24c1.66,0,3-1.34,3-3V7C34,5.34,32.66,4,31,4L31,4z"/>
</g>
<g id="矩形_14">
	<path class="st0" d="M22,6v11.61c0,0.22-0.18,0.39-0.39,0.39h-5.21C16.18,18,16,17.82,16,17.61V6H22 M22,4h-6c-1.1,0-2,0.9-2,2v12
		c0,1.1,0.9,2,2,2h6c1.1,0,2-0.9,2-2V6C24,4.9,23.1,4,22,4L22,4z"/>
</g>
</svg>
