<?xml version="1.0" standalone="no"?><!DOCTYPE svg PUBLIC "-//W3C//DTD SVG 1.1//EN" "http://www.w3.org/Graphics/SVG/1.1/DTD/svg11.dtd"><svg t="1557371024746" class="icon" style="" viewBox="0 0 1024 1024" version="1.1" xmlns="http://www.w3.org/2000/svg" p-id="4423" xmlns:xlink="http://www.w3.org/1999/xlink" width="32" height="32"><defs><style type="text/css"></style></defs><path d="M968.29 392.7c32.28-6.37 55.71-35.28 55.71-68.75V166.4A70.48 70.48 0 0 0 953.6 96H70.4A70.48 70.48 0 0 0 0 166.4v157.55c0 33.47 23.43 62.39 55.71 68.75a121.64 121.64 0 0 1 0 238.59C23.43 637.67 0 666.58 0 700.05V857.6A70.48 70.48 0 0 0 70.4 928h883.2a70.48 70.48 0 0 0 70.4-70.4V700.05c0-33.47-23.43-62.39-55.71-68.75a121.64 121.64 0 0 1 0-238.59zM955.9 694.09c2.3 0.45 4.1 3.07 4.1 6V857.6a6.41 6.41 0 0 1-6.4 6.4H70.4a6.41 6.41 0 0 1-6.4-6.4V700.05c0-2.89 1.8-5.51 4.1-6C154.72 677 217.6 600.42 217.6 512S154.72 347 68.1 329.91c-2.3-0.45-4.1-3.07-4.1-6V166.4a6.41 6.41 0 0 1 6.4-6.4h883.2a6.41 6.41 0 0 1 6.4 6.4v157.55c0 2.89-1.8 5.51-4.1 6C869.28 347 806.4 423.58 806.4 512s62.88 165 149.5 182.09z" fill="#2c2c2c" p-id="4424"></path><path d="M665.6 384H358.4a32 32 0 0 0 0 64h307.2a32 32 0 0 0 0-64zM665.6 576H358.4a32 32 0 0 0 0 64h307.2a32 32 0 0 0 0-64z" fill="#2c2c2c" p-id="4425"></path></svg>